<svg xmlns="http://www.w3.org/2000/svg" version="1.1" xmlns:xlink="http://www.w3.org/1999/xlink" xmlns:svgjs="http://svgjs.dev/svgjs" width="300" height="200" viewBox="0 0 1000 660"><g transform="matrix(1,0,0,1,-0.6413376154941943,0.2672064777327705)"><svg viewBox="0 0 374 247" data-background-color="#8d021f" preserveAspectRatio="xMidYMid meet" height="660" width="1000" xmlns="http://www.w3.org/2000/svg" xmlns:xlink="http://www.w3.org/1999/xlink"><g id="tight-bounds" transform="matrix(1,0,0,1,0.23986026819483186,-0.09999999999999432)"><svg viewBox="0 0 373.52027946361034 247.2" height="247.2" width="373.52027946361034"><g><svg viewBox="0 0 373.52027946361034 247.2" height="247.2" width="373.52027946361034"><g><svg viewBox="0 0 194.78510028653295 247.2" height="247.2" width="194.78510028653295"><g><svg viewBox="0 0 194.78510028653295 247.2" height="247.2" width="194.78510028653295"><g><svg viewBox="0 0 194.78510028653295 247.2" height="247.2" width="194.78510028653295"><g transform="matrix(1,0,0,1,0,0)"><svg width="194.78510028653295" viewBox="3.8499999046325684 -34.900001525878906 27.5 34.900001525878906" height="247.2" data-palette-color="#ff5858"><g class="undefined-text-0" data-fill-palette-color="primary" id="text-0"><path d="M3.85 0L3.85-34.9 20.8-34.9Q25.15-34.9 27.58-32.45 30-30 30-25.95L30-25.95Q30-23.95 29.48-22.55 28.95-21.15 28.08-20.25 27.2-19.35 26.03-18.93 24.85-18.5 23.5-18.45L23.5-18.45 23.5-18.15Q24.75-18.15 26.13-17.7 27.5-17.25 28.65-16.28 29.8-15.3 30.58-13.75 31.35-12.2 31.35-9.95L31.35-9.95Q31.35-7.9 30.68-6.08 30-4.25 28.8-2.9 27.6-1.55 25.95-0.78 24.3 0 22.35 0L22.35 0 3.85 0ZM11.45-14.4L11.45-6.4 20.2-6.4Q21.7-6.4 22.58-7.23 23.45-8.05 23.45-9.55L23.45-9.55 23.45-11.25Q23.45-12.75 22.58-13.58 21.7-14.4 20.2-14.4L20.2-14.4 11.45-14.4ZM11.45-28.5L11.45-20.6 19-20.6Q20.5-20.6 21.35-21.45 22.2-22.3 22.2-23.8L22.2-23.8 22.2-25.3Q22.2-26.8 21.35-27.65 20.5-28.5 19-28.5L19-28.5 11.45-28.5Z" fill="#ff5858" data-fill-palette-color="primary"></path></g></svg></g></svg></g></svg></g></svg></g><g transform="matrix(1,0,0,1,253.14308748653295,63.411404011461315)"><svg viewBox="0 0 120.37719197707736 120.37719197707736" height="120.37719197707736" width="120.37719197707736"><g data-palette-color="#ed2647"><rect width="32.903099140401146" height="120.37719197707736" fill="#ed2647" stroke="transparent" data-fill-palette-color="accent" x="0" fill-opacity="1"></rect><rect width="32.903099140401146" height="120.37719197707736" fill="#ed2647" stroke="transparent" data-fill-palette-color="accent" x="40.12573065902579" fill-opacity="0.75"></rect><rect width="32.903099140401146" height="120.37719197707736" fill="#ed2647" stroke="transparent" data-fill-palette-color="accent" x="80.25146131805158" fill-opacity="0.5"></rect></g></svg></g></svg></g><defs></defs></svg><rect width="373.52027946361034" height="247.2" fill="none" stroke="none" visibility="hidden"></rect></g></svg></g></svg>